<svg width="34" height="28" viewBox="0 0 34 28" fill="none" xmlns="http://www.w3.org/2000/svg">
<path fill-rule="evenodd" clip-rule="evenodd" d="M16.9592 26.5521C12.1007 26.5521 7.9502 25.8171 7.9502 22.8741C7.9502 19.9311 12.0737 17.3691 16.9592 17.3691C21.8177 17.3691 25.9682 19.9071 25.9682 22.8486C25.9682 25.7901 21.8447 26.5521 16.9592 26.5521Z" stroke="#2699FB" stroke-width="2" stroke-linecap="round" stroke-linejoin="round"/>
<path fill-rule="evenodd" clip-rule="evenodd" d="M16.9586 13.1735C20.1476 13.1735 22.7336 10.589 22.7336 7.4C22.7336 4.211 20.1476 1.625 16.9586 1.625C13.7696 1.625 11.1836 4.211 11.1836 7.4C11.1746 10.577 13.7396 13.163 16.9181 13.1735H16.9586Z" stroke="#2699FB" stroke-width="2" stroke-linecap="round" stroke-linejoin="round"/>
<path d="M26.5439 11.5875C28.3994 11.091 29.7674 9.39905 29.7674 7.38455C29.7674 5.28305 28.2779 3.52805 26.2949 3.12305" stroke="#2699FB" stroke-width="2" stroke-linecap="round" stroke-linejoin="round"/>
<path d="M27.415 16.3164C30.046 16.3164 32.293 18.0999 32.293 19.6929C32.293 20.6304 31.5175 21.6519 30.3415 21.9279" stroke="#2699FB" stroke-width="2" stroke-linecap="round" stroke-linejoin="round"/>
<path d="M7.37637 11.5875C5.51937 11.091 4.15137 9.39905 4.15137 7.38455C4.15137 5.28305 5.64237 3.52805 7.62387 3.12305" stroke="#2699FB" stroke-width="2" stroke-linecap="round" stroke-linejoin="round"/>
<path d="M6.503 16.3164C3.872 16.3164 1.625 18.0999 1.625 19.6929C1.625 20.6304 2.4005 21.6519 3.578 21.9279" stroke="#2699FB" stroke-width="2" stroke-linecap="round" stroke-linejoin="round"/>
</svg>
