<svg width="26" height="35" viewBox="0 0 26 35" fill="none" xmlns="http://www.w3.org/2000/svg">
<path d="M20.9167 23.138V34.0186C20.9167 34.1587 20.8796 34.2963 20.8091 34.4173C20.7386 34.5383 20.6372 34.6385 20.5153 34.7075C20.3935 34.7766 20.2555 34.8121 20.1154 34.8104C19.9753 34.8087 19.8382 34.7699 19.7181 34.6979L13 30.6667L6.28193 34.6979C6.16166 34.7699 6.02441 34.8088 5.88422 34.8104C5.74402 34.812 5.60591 34.7764 5.484 34.7072C5.36208 34.6379 5.26075 34.5375 5.19036 34.4163C5.11996 34.295 5.08303 34.1572 5.08334 34.017V23.1395C3.03474 21.4994 1.54616 19.2634 0.82332 16.7406C0.100476 14.2178 0.179057 11.5327 1.0482 9.05654C1.91735 6.58034 3.53415 4.43523 5.67517 2.91765C7.81618 1.40007 10.3757 0.584961 13 0.584961C15.6243 0.584961 18.1838 1.40007 20.3249 2.91765C22.4659 4.43523 24.0827 6.58034 24.9518 9.05654C25.821 11.5327 25.8995 14.2178 25.1767 16.7406C24.4539 19.2634 22.9653 21.4994 20.9167 23.1395V23.138ZM8.25001 24.9952V29.8244L13 26.9744L17.75 29.8244V24.9952C16.2408 25.6056 14.6279 25.9185 13 25.9167C11.3721 25.9185 9.75917 25.6056 8.25001 24.9952ZM13 22.75C15.5196 22.75 17.9359 21.7492 19.7175 19.9676C21.4991 18.186 22.5 15.7696 22.5 13.25C22.5 10.7305 21.4991 8.31412 19.7175 6.53253C17.9359 4.75093 15.5196 3.75004 13 3.75004C10.4805 3.75004 8.06409 4.75093 6.2825 6.53253C4.5009 8.31412 3.50001 10.7305 3.50001 13.25C3.50001 15.7696 4.5009 18.186 6.2825 19.9676C8.06409 21.7492 10.4805 22.75 13 22.75Z" fill="#6B46FF"/>
</svg>
