<svg width="32" height="32" viewBox="0 0 32 32" fill="none" xmlns="http://www.w3.org/2000/svg">
<path d="M16 28.6665C19.3594 28.6665 22.5812 27.332 24.9567 24.9565C27.3322 22.5811 28.6667 19.3592 28.6667 15.9998C28.6667 12.6404 27.3322 9.41861 24.9567 7.04315C22.5812 4.66769 19.3594 3.33317 16 3.33317C12.6406 3.33317 9.4188 4.66769 7.04334 7.04315C4.66787 9.41861 3.33335 12.6404 3.33335 15.9998C3.33335 19.3592 4.66787 22.5811 7.04334 24.9565C9.4188 27.332 12.6406 28.6665 16 28.6665ZM16 31.8332C7.25527 31.8332 0.166687 24.7446 0.166687 15.9998C0.166687 7.25509 7.25527 0.166504 16 0.166504C24.7448 0.166504 31.8334 7.25509 31.8334 15.9998C31.8334 24.7446 24.7448 31.8332 16 31.8332ZM16 22.3332C17.6797 22.3332 19.2906 21.6659 20.4784 20.4782C21.6661 19.2905 22.3334 17.6795 22.3334 15.9998C22.3334 14.3201 21.6661 12.7092 20.4784 11.5215C19.2906 10.3338 17.6797 9.6665 16 9.6665C14.3203 9.6665 12.7094 10.3338 11.5217 11.5215C10.3339 12.7092 9.66669 14.3201 9.66669 15.9998C9.66669 17.6795 10.3339 19.2905 11.5217 20.4782C12.7094 21.6659 14.3203 22.3332 16 22.3332ZM16 25.4998C13.4805 25.4998 11.0641 24.499 9.28251 22.7174C7.50091 20.9358 6.50002 18.5194 6.50002 15.9998C6.50002 13.4803 7.50091 11.0639 9.28251 9.28232C11.0641 7.50073 13.4805 6.49984 16 6.49984C18.5196 6.49984 20.9359 7.50073 22.7175 9.28232C24.4991 11.0639 25.5 13.4803 25.5 15.9998C25.5 18.5194 24.4991 20.9358 22.7175 22.7174C20.9359 24.499 18.5196 25.4998 16 25.4998ZM16 19.1665C15.1602 19.1665 14.3547 18.8329 13.7609 18.239C13.167 17.6451 12.8334 16.8397 12.8334 15.9998C12.8334 15.16 13.167 14.3545 13.7609 13.7607C14.3547 13.1668 15.1602 12.8332 16 12.8332C16.8399 12.8332 17.6453 13.1668 18.2392 13.7607C18.8331 14.3545 19.1667 15.16 19.1667 15.9998C19.1667 16.8397 18.8331 17.6451 18.2392 18.239C17.6453 18.8329 16.8399 19.1665 16 19.1665Z" fill="#6B46FF"/>
</svg>
